<svg width="161" height="48" viewBox="0 0 161 48" fill="none" xmlns="http://www.w3.org/2000/svg">
<path fill-rule="evenodd" clip-rule="evenodd" d="M149.67 11.8032C149.604 12.1193 149.538 12.4351 149.471 12.751C147.349 16.4318 145.219 20.1083 143.073 23.7762C141.071 27.213 139.076 30.6582 137.142 34.1357L131.379 45.2165L131.119 45.4182L124.741 45.5022L130.589 36.3672C130.76 36.0804 130.914 35.7938 131.066 35.4976C130.61 31.9179 130.155 28.3377 129.685 24.7608C129.258 21.4894 128.814 18.2213 128.348 14.9559L126.753 16.3515L122.586 16.2607L120.681 24.1962L119.988 27.2626L119.843 28.275L119.894 28.9611L120.067 29.441L120.329 29.8189L120.66 30.1059L121.033 30.3089L121.426 30.44L121.824 30.5111L123.349 30.4319L124.661 30.0594L123.432 34.3202L123.209 34.5425L121.123 34.9068C120.686 34.9572 120.244 34.9973 119.803 35.0082C118.668 35.0263 117.526 34.9668 116.426 34.6667C116.053 34.5614 115.711 34.4316 115.358 34.2685L114.457 33.6784L114.111 33.3378L113.812 32.9512L113.56 32.5136L113.358 32.022L113.21 31.4714L113.098 30.5432C113.048 29.3877 113.264 28.2287 113.487 27.1011C113.689 26.1001 113.924 25.1067 114.163 24.1155L116.067 16.2546L112.752 16.3496L112.676 16.2489L113.877 12.0662L114.017 11.9667H117.062L118.369 6.15168L118.549 5.97088C119.989 5.64603 121.425 5.3131 122.851 4.9362C123.738 4.69762 124.623 4.44807 125.504 4.19263L125.513 4.2018L124.592 7.67669L123.532 12.0599L124.935 12.0351C126.641 12.0059 128.346 12.0036 130.051 11.9653C131.724 11.9256 133.39 11.8304 135.058 11.7127L135.139 11.7938L135.484 17.6038L136.175 27.4737C138.824 22.3836 141.497 17.3015 143.943 12.1114L144.162 11.9204L149.67 11.8032ZM12.9537 11.838C12.6404 12.4258 12.3297 13.0156 12.0156 13.6053C9.7538 17.8537 7.42676 22.0683 5.16587 26.3193C4.33089 27.8834 3.48829 29.4466 2.62594 30.9981L0.665161 34.4706L0.725572 34.6544L2.7756 34.5757L7.42135 34.5249L7.59246 34.3781L11.4671 26.2732H21.1743L21.318 29.8204L21.4036 34.5736L21.4889 34.6614L28.7364 34.5269L28.8108 34.4529L26.9338 11.325L26.4165 4.07051L26.3703 4.02433L17.0765 4.15267L16.8634 4.31237L12.9537 11.838ZM20.3953 8.76175L20.5709 16.0916L20.7903 21.2707H14.2069L20.3953 8.76175ZM39.4501 30.0806C39.3624 30.0627 39.2747 30.0429 39.1865 30.0208C38.9034 29.9435 38.6286 29.8236 38.3862 29.6538C38.2006 29.517 38.0435 29.3711 37.8827 29.2038L37.5925 28.7731L37.3833 28.2475L37.2777 27.6642C37.2612 27.099 37.3028 26.56 37.3792 25.9993C37.5747 24.6409 37.8791 23.2951 38.1961 21.9598C38.6084 20.2584 39.0465 18.5646 39.4234 16.8538C39.8467 15.2061 40.241 13.5485 40.6234 11.8894L40.5672 11.7999L33.8748 12.1366L33.7313 12.2597C33.4573 13.7998 33.1782 15.3384 32.8356 16.864C32.4696 18.4846 32.0786 20.1012 31.7057 21.7196C31.4174 22.9622 31.0984 24.1983 30.8157 25.4411C30.6473 26.2047 30.5032 26.9586 30.4027 27.7333C30.3342 28.3014 30.299 28.861 30.2878 29.4315L30.327 30.2515L30.439 30.9862L30.6168 31.6431L30.8523 32.2274L31.1404 32.7432L31.4735 33.1962L31.8467 33.5906L32.2541 33.9304L32.6909 34.2188L33.151 34.4597L33.6283 34.6555L34.1158 34.809L35.0964 35.0003C35.5077 35.0383 35.9222 35.0693 36.3345 35.0522C37.1184 35.0099 37.8702 34.8884 38.6227 34.6683C39.1722 34.4954 39.691 34.2954 40.2118 34.0505C41.3443 33.4869 42.3558 32.7253 43.4049 32.0188L42.7764 34.6384L42.8215 34.7035L49.3933 34.5278L49.5373 34.4045L50.877 27.8342L51.8437 23.4404L53.9591 14.5088L55.3394 16.3496L58.6544 16.2546L56.7503 24.1155L56.0738 27.1011L55.6855 30.5432L55.7971 31.4714L55.9459 32.022L56.1473 32.5136L56.3991 32.9512L56.6982 33.3378L57.0442 33.6784C57.3312 33.8969 57.6154 34.1114 57.9451 34.2685L59.6458 34.8149C61.1294 35.0795 62.6623 35.0705 64.152 34.8433C64.6993 34.7566 65.245 34.6539 65.7904 34.5484L66.019 34.3202L67.2554 30.0334L65.8088 30.4606L64.8207 30.5344L64.4116 30.5111L64.0138 30.44L63.62 30.3089L63.2469 30.1059L62.9166 29.8189L62.6547 29.441L62.4815 28.9611L62.4316 28.292L63.0792 24.9363L65.1737 16.2607L69.34 16.3515L69.5324 16.1832L69.7953 15.2522C70.1078 14.1584 70.4691 13.08 70.829 11.9992L70.8127 11.9704L66.1191 12.0622L67.1789 7.67669L68.1003 4.2018L68.0846 4.18623L63.9885 5.3077L61.1391 5.96854L60.956 6.15168L59.6489 11.9667H56.6041L56.3298 12.1626L55.4831 13.3335L54.5245 11.7996L47.733 12.1372L47.5516 12.2735L46.038 19.8411L44.1678 28.4795C43.7421 28.7775 43.3282 29.0704 42.883 29.3321C42.4828 29.5616 42.0528 29.7183 41.6287 29.8962L40.8462 30.0724C40.3753 30.132 39.9191 30.1627 39.4501 30.0806ZM91.8179 25.0134C92.0814 23.899 92.2708 22.7798 92.3468 21.6361C92.4251 20.4406 92.3632 19.2354 92.1361 18.0579C91.9667 17.2461 91.684 16.4555 91.2719 15.7333C90.9823 15.237 90.6188 14.8153 90.2623 14.359C90.0318 14.1183 89.7921 13.8886 89.5419 13.6687L88.7344 13.0731L87.7257 12.5143C87.3354 12.3384 86.9413 12.1828 86.5369 12.045L85.0618 11.6792C84.4013 11.5954 83.7484 11.4916 83.0828 11.4611C82.4716 11.4363 81.876 11.4523 81.2608 11.4705L80.2899 11.5582L79.3711 11.7001L78.5032 11.8932L77.6845 12.1343L76.9133 12.42L76.1883 12.7479L75.5074 13.1139L74.87 13.5166L74.273 13.9518L73.7166 14.4168L73.1984 14.9086L72.718 15.4251L72.2732 15.9624L71.4859 17.0889L70.8295 18.2643L70.2917 19.463C69.4519 21.6887 68.9373 24.0806 69.0502 26.4713C69.0848 27.1178 69.1507 27.7473 69.2737 28.3848C69.384 28.9354 69.5415 29.4625 69.7378 29.9893C69.8672 30.3196 70.0228 30.6382 70.1916 30.9502L70.9862 32.0876L71.7875 32.8947L72.4911 33.4334C72.7951 33.628 73.1052 33.8079 73.4261 33.9727L74.7729 34.5038C75.5042 34.7215 76.2291 34.8756 76.9837 34.9733C78.1628 35.1202 79.3405 35.1262 80.5243 35.05C81.239 34.9588 81.9608 34.8974 82.6639 34.7443C83.3018 34.6002 83.9102 34.4174 84.518 34.1825C84.901 34.0335 85.258 33.8533 85.6281 33.674L86.9749 32.8303C87.4931 32.44 87.9722 32.0376 88.4277 31.5747C88.822 31.1654 89.1705 30.7413 89.506 30.2834C90.1746 29.348 90.7089 28.3171 91.1215 27.2456C91.3991 26.5092 91.6221 25.7754 91.8179 25.0134ZM85.2191 23.4903L84.8406 25.0482C84.6179 25.8245 84.3753 26.5728 84.0582 27.3177C83.5938 28.381 82.928 29.3899 82.0177 30.1255C81.8816 30.2321 81.7421 30.3336 81.5987 30.4333L80.9484 30.7835L80.2326 31.0168C79.9478 31.0586 79.6892 31.0979 79.4018 31.0979C79.1829 31.0927 78.9679 31.0756 78.7494 31.0479C78.0911 30.9479 77.457 30.6729 76.9603 30.225C76.635 29.9171 76.3816 29.5938 76.1878 29.1792C76.0365 28.8405 75.9108 28.5019 75.8474 28.1362C75.618 26.6548 75.8243 25.1475 76.0912 23.6868C76.4623 21.7686 76.9759 19.8229 77.9274 18.1026C78.1678 17.7007 78.4262 17.3443 78.7464 17.005C79.1016 16.6283 79.4962 16.332 79.9333 16.0581L80.4784 15.7978L81.1161 15.5993L81.8263 15.4916L82.2438 15.4757L82.7395 15.5039L83.1938 15.586L83.6065 15.7194L83.9755 15.8992L84.3024 16.1203L84.5868 16.3771L84.8309 16.663L85.0362 16.9716L85.3507 17.6518L85.5375 18.3299C85.5857 18.6655 85.6376 18.9905 85.653 19.3277C85.6986 20.7347 85.4937 22.1157 85.2191 23.4903ZM94.9206 34.5668C95.8521 34.826 96.7921 34.9842 97.7561 35.0699C97.9071 35.0828 98.059 35.0946 98.2109 35.105C98.3243 35.1125 98.4385 35.1194 98.5532 35.1256C99.9282 35.1956 101.283 35.0934 102.641 34.8809L103.954 34.5727L105.097 34.1692L106.082 33.6852L106.924 33.1358L107.633 32.5354L108.221 31.8978L108.695 31.2465L109.084 30.5642L109.379 29.8978L109.594 29.2584L109.82 28.2334C109.848 28.0206 109.871 27.8074 109.889 27.5924C109.915 27.2234 109.901 26.8592 109.874 26.4893L109.774 25.8596L109.618 25.2901C109.472 24.9216 109.328 24.5533 109.115 24.2159C108.989 24.0225 108.857 23.8341 108.718 23.6499C108.484 23.395 108.261 23.1331 108.004 22.9018C107.631 22.5735 107.248 22.2832 106.827 22.014C105.856 21.4138 104.838 20.9212 103.807 20.4371L103.521 20.2983C102.464 19.7661 101.264 19.0635 101.182 17.7502C101.172 17.4255 101.23 17.1582 101.35 16.8584L101.407 16.7211L101.686 16.3L102.09 15.9114L102.61 15.5861L103.227 15.344L103.994 15.1809C104.426 15.138 104.858 15.1115 105.293 15.1441C105.859 15.1966 106.395 15.2949 106.94 15.4552C107.315 15.5688 107.677 15.7097 108.032 15.8797C108.655 16.2037 109.22 16.5739 109.718 17.0753C109.895 17.2609 110.071 17.4494 110.241 17.6419L110.314 17.6274C110.579 16.5295 110.872 15.4443 111.202 14.3618C111.319 13.9801 111.437 13.5974 111.555 13.2142L111.473 13.0295C110.268 12.4596 109.028 12.0026 107.725 11.7187C106.881 11.5384 106.042 11.4315 105.181 11.3809C104.34 11.3358 103.511 11.3657 102.671 11.4215C101.918 11.471 101.176 11.6244 100.443 11.7936L99.8288 11.9728L99.2594 12.1774L98.7334 12.4036L97.8029 12.9157L97.0219 13.4906L96.3763 14.1114L95.8511 14.7618C95.463 15.344 95.1319 15.9608 94.9116 16.6247C94.7461 17.141 94.6129 17.6619 94.5531 18.2007C94.5274 18.4495 94.5093 18.6963 94.5037 18.9447L94.5285 19.5439L94.5999 20.0954L94.7147 20.6022L94.8691 21.068L95.0608 21.4969L95.2869 21.8921L95.5451 22.2584L95.8322 22.5979L96.4885 23.2086C97.4563 23.947 98.5308 24.509 99.619 25.0446C100.546 25.4955 101.545 25.8918 102.286 26.6311C102.394 26.7442 102.493 26.8605 102.593 26.9819L102.859 27.4607L103.001 28.011C103.01 28.2647 103.02 28.4811 102.978 28.7277C102.933 28.9447 102.868 29.1403 102.79 29.3459L102.53 29.7929L102.316 30.0506L102.074 30.2813L101.785 30.4971L101.448 30.6913L101.059 30.8603L100.617 30.9989L100.118 31.1031L99.5586 31.1682L98.9358 31.1911L98.2974 31.1683L97.6936 31.1031L97.1236 30.9996L96.5871 30.8624L95.6149 30.5045C95.1014 30.2564 94.6073 29.9848 94.1471 29.6452C93.6405 29.2632 93.1742 28.8531 92.7427 28.3854L92.6901 28.4027L91.3945 32.8515L91.4548 33.032L92.933 33.833C93.5863 34.1275 94.234 34.3701 94.9206 34.5668ZM151.652 7.14688C150.582 12.9998 149.181 18.8159 147.914 24.6314L145.574 34.6435L145.585 34.6604L152.604 34.5267L152.735 34.4328L154.247 26.4302L157.013 13.5665L160.098 0.268866L160.071 0.231201L152.634 1.45689L152.471 1.61918C152.245 3.40651 152.001 5.18549 151.686 6.95799L151.652 7.14688Z" fill="#D8232A"/>
<path fill-rule="evenodd" clip-rule="evenodd" d="M18.5506 43.2603H18.9271C19.3135 43.2603 19.6024 43.1932 19.7976 43.059C19.9029 42.9804 19.9926 42.8693 20.0648 42.7294C20.1371 42.5896 20.1741 42.4497 20.1741 42.3117C20.1741 42.1738 20.1371 42.0339 20.0648 41.894C19.9926 41.7541 19.9029 41.6429 19.7976 41.5644C19.6024 41.4302 19.3135 41.3633 18.9271 41.3633H18.5506V43.2603ZM92.1212 41.5317C91.5162 41.5317 91.001 41.7407 90.5775 42.1603C90.1463 42.5876 89.9314 43.0859 89.9314 43.6588C89.9314 44.2662 90.1463 44.7817 90.5775 45.2091C91.001 45.6287 91.5181 45.8374 92.1272 45.8374C92.7338 45.8374 93.2511 45.6287 93.6825 45.2091C94.1099 44.7855 94.3225 44.2777 94.3225 43.6817C94.3225 43.08 94.1099 42.5723 93.6825 42.1603C93.2511 41.7484 92.7321 41.5394 92.1212 41.5317ZM3.70325 41.5145V47.4931H1.67359V41.5145H0.020874V39.8303H5.38347V41.5145H3.70325ZM20.5566 44.3486L23.0098 47.4931H20.4824L18.5506 44.5517V47.4931H16.5209V39.8303H19.6766C20.1155 39.8303 20.4884 39.884 20.7948 39.9932C21.1012 40.1023 21.3665 40.271 21.5911 40.5049C22.038 40.9685 22.2604 41.5337 22.2604 42.1987C22.2604 42.5357 22.196 42.8558 22.0691 43.1586C21.9404 43.4614 21.7685 43.7066 21.5519 43.8944C21.308 44.1033 20.9763 44.2566 20.5566 44.3486ZM36.0576 39.8303V43.9786C36.0576 44.4176 36.0692 44.7146 36.0945 44.8717C36.12 45.0289 36.1805 45.188 36.2802 45.3489C36.5122 45.7379 36.8908 45.9331 37.4117 45.9331C37.6677 45.9331 37.9036 45.8777 38.1183 45.7645C38.333 45.6517 38.4951 45.5003 38.6025 45.3106C38.6863 45.1592 38.741 45.0001 38.7665 44.8334C38.7935 44.6647 38.8073 44.3792 38.8073 43.9786V39.8303H40.8368V44.2489C40.8368 44.9828 40.7373 45.5462 40.5403 45.9389C40.2378 46.537 39.7889 46.9909 39.1896 47.2976C38.6726 47.56 38.0696 47.6905 37.3845 47.6905C36.6021 47.6905 35.9229 47.5236 35.3432 47.1903C34.8594 46.9106 34.5177 46.5504 34.3226 46.1095C34.1255 45.6707 34.0279 45.05 34.0279 44.2489V39.8303H36.0576ZM55.6626 41.5145V47.4931H53.633V41.5145H51.98V39.8303H57.3429V41.5145H55.6626ZM68.4803 47.4931V39.8303H70.51L74.2431 44.5172V39.8303H76.2728V47.4931H74.2431L70.51 42.8004V47.4931H68.4803ZM92.1212 39.6003C93.4247 39.6003 94.4903 40.0296 95.3176 40.8861C96.0692 41.6601 96.4437 42.5934 96.4437 43.6817C96.4437 44.4311 96.2547 45.1207 95.8779 45.7531C95.474 46.4352 94.9157 46.9528 94.2035 47.3091C93.5849 47.6157 92.8803 47.7689 92.0861 47.7689C90.802 47.7689 89.75 47.3415 88.9303 46.489C88.1789 45.7112 87.8043 44.7529 87.8043 43.6147C87.8043 42.8998 87.9937 42.2331 88.3701 41.616C89.1743 40.2978 90.4252 39.6271 92.1212 39.6003ZM109.016 39.8303L110.897 44.4904L112.794 39.8303H114.995L111.668 47.4931H110.091L106.808 39.8303H109.016Z" fill="#1A1919"/>
</svg>
