<?xml version="1.0" encoding="UTF-8" standalone="no"?>
<!-- Uploaded to: SVG Repo, www.svgrepo.com, Generator: SVG Repo Mixer Tools -->

<svg
   fill="#000000"
   width="30.911901"
   height="20"
   viewBox="0 0 0.92735704 0.6"
   role="img"
   version="1.1"
   id="svg286"
   sodipodi:docname="logo-toyota.svg"
   inkscape:version="1.2 (dc2aeda, 2022-05-15)"
   xmlns:inkscape="http://www.inkscape.org/namespaces/inkscape"
   xmlns:sodipodi="http://sodipodi.sourceforge.net/DTD/sodipodi-0.dtd"
   xmlns="http://www.w3.org/2000/svg"
   xmlns:svg="http://www.w3.org/2000/svg"
   xmlns:rdf="http://www.w3.org/1999/02/22-rdf-syntax-ns#"
   xmlns:cc="http://creativecommons.org/ns#"
   xmlns:dc="http://purl.org/dc/elements/1.1/">
  <defs
     id="defs290" />
  <sodipodi:namedview
     id="namedview288"
     pagecolor="#505050"
     bordercolor="#eeeeee"
     borderopacity="1"
     inkscape:showpageshadow="0"
     inkscape:pageopacity="0"
     inkscape:pagecheckerboard="0"
     inkscape:deskcolor="#505050"
     showgrid="false"
     inkscape:zoom="15.44799"
     inkscape:cx="12.946668"
     inkscape:cy="11.101768"
     inkscape:window-width="1680"
     inkscape:window-height="997"
     inkscape:window-x="0"
     inkscape:window-y="25"
     inkscape:window-maximized="1"
     inkscape:current-layer="svg286" />
  <title
     id="title282">Toyota icon</title>
  <path
     d="M 0.46367852,0 C 0.20761206,0 0,0.1343122 0,0.2999227 0,0.4656491 0.20761206,0.6 0.46367852,0.6 0.71974498,0.6 0.92735703,0.4656878 0.92735703,0.2999227 0.92735703,0.1341577 0.71974498,0 0.46367852,0 Z m 0,0.4712519 c -0.0380989,0 -0.0691654,-0.075039 -0.0710974,-0.1694358 a 0.81503091,0.81503091 0 0 0 0.14219475,0 c -0.001932,0.094359 -0.0329985,0.1694358 -0.0710974,0.1694358 z m -0.066422,-0.2443585 c 0.0103555,-0.066731 0.0362056,-0.1141036 0.066422,-0.1141036 0.0302164,0 0.0560278,0.047373 0.0664219,0.1141036 a 0.75100464,0.75100464 0 0 1 -0.1328439,0 z m 0.066422,-0.1835395 c -0.0497295,0 -0.0921561,0.074498 -0.10780526,0.1784776 C 0.26159196,0.2071484 0.19578825,0.173609 0.19578825,0.13466 c 0,-0.05255 0.11993818,-0.095093 0.26789027,-0.095093 0.14799072,0 0.26789026,0.042581 0.26789026,0.095093 0,0.038949 -0.0658037,0.072488 -0.16008501,0.087172 C 0.55583462,0.1178903 0.51340804,0.0433926 0.46367852,0.0433926 Z M 0.06646059,0.2887172 c 0,-0.050812 0.01959041,-0.098532 0.05363215,-0.13949 -3.4776e-4,0.00286 -5.796e-4,0.0058 -5.796e-4,0.00873 0,0.064026 0.0960201,0.1186244 0.23002318,0.1387172 -1.1592e-4,0.00464 -1.1592e-4,0.00935 -1.1592e-4,0.014065 0,0.1193972 0.0334621,0.2204405 0.0797141,0.2547527 C 0.22588872,0.5532457 0.06649923,0.4340031 0.06649923,0.2887172 Z m 0.43176198,0.2767774 c 0.0462519,-0.034312 0.0797141,-0.1353941 0.0797141,-0.2547527 0,-0.00475 -7.728e-5,-0.00939 -1.1592e-4,-0.014026 0.13392581,-0.020093 0.23002318,-0.074652 0.23002318,-0.1387558 0,-0.00294 -2.3183e-4,-0.00587 -5.7959e-4,-0.00873 0.0340417,0.041074 0.0535935,0.088679 0.0535935,0.13949 0,0.1452859 -0.15938949,0.2645285 -0.36263524,0.2767774 z m 0,0 z"
     id="path284"
     style="stroke-width:0.0386399" />
  <metadata
     id="metadata400">
    <rdf:RDF>
      <cc:Work
         rdf:about="">
        <dc:title>Toyota icon</dc:title>
      </cc:Work>
    </rdf:RDF>
  </metadata>
</svg>
