<svg width="74" height="10" viewBox="0 0 74 10" fill="none" xmlns="http://www.w3.org/2000/svg">
<path d="M0.285645 9.52366L1.63537 7.60817H9.46376C9.90722 7.60817 10.1965 7.35156 10.1965 6.95823V5.84654H3.46713C1.46183 5.84654 0.574887 5.05987 0.574887 3.31537V2.56286C0.574887 1.26304 1.44255 0.476318 2.81155 0.476318H2.9658V3.28116C2.9658 3.6745 3.25505 3.93105 3.69852 3.93105H10.2157C11.7004 3.93105 12.5874 4.71777 12.5874 6.00051V6.99244C12.5874 8.68559 11.6426 9.52366 9.69514 9.52366H0.285645ZM47.1968 7.57396H53.2512C54.2539 7.57396 54.8902 7.02665 54.8902 6.17151V3.82847C54.8902 2.97333 54.2539 2.42602 53.2512 2.42602H47.1968V7.57396ZM44.7673 9.52366V0.476318H53.3091C55.8543 0.476318 57.3197 1.77614 57.3197 3.93105V6.06888C57.3197 8.22384 55.8543 9.52366 53.3091 9.52366H44.7673ZM32.9936 7.57396H38.1034C39.0288 7.57396 39.6266 7.06086 39.6266 6.25706V3.74292C39.6266 2.93912 39.0288 2.42602 38.1034 2.42602H32.9936C32.0682 2.42602 31.4704 2.93912 31.4704 3.74292V6.257C31.4704 7.06086 32.0682 7.57396 32.9936 7.57396ZM38.1612 9.52366H32.9358C30.4678 9.52366 29.0409 8.25805 29.0409 6.15443V3.84555C29.0409 1.74193 30.4677 0.476318 32.9358 0.476318H38.1612C40.6292 0.476318 42.0561 1.74193 42.0561 3.84555V6.15443C42.0561 8.25805 40.6293 9.52366 38.1612 9.52366ZM58.3151 9.52366L64.0417 0.476318H67.4162L73.1428 9.52366H70.3663L69.3828 7.96729H64.5044L63.1935 6.12022L61.0339 9.52366H58.3151ZM63.2512 6.01759H68.149L65.6998 2.16947L63.2512 6.01759ZM5.35674 2.3576L3.96846 0.476318H12.356L11.0063 2.3576H5.35674ZM15.2608 9.52366V0.476318H17.6903V3.99947H20.9103L25.0945 0.476318H28.3145L22.9928 4.97432L28.4109 9.52366H24.9981L20.8139 5.94917H17.6903V9.52366H15.2608Z" fill="#419468"/>
</svg>
