<?xml version="1.0" encoding="UTF-8" standalone="no"?>
<svg
   width="12"
   height="13"
   fill="#000000"
   viewBox="0 0 96 104"
   version="1.1"
   id="svg184"
   sodipodi:docname="youtube.svg"
   inkscape:version="1.2 (dc2aeda, 2022-05-15)"
   xmlns:inkscape="http://www.inkscape.org/namespaces/inkscape"
   xmlns:sodipodi="http://sodipodi.sourceforge.net/DTD/sodipodi-0.dtd"
   xmlns="http://www.w3.org/2000/svg"
   xmlns:svg="http://www.w3.org/2000/svg">
  <defs
     id="defs188" />
  <sodipodi:namedview
     id="namedview186"
     pagecolor="#505050"
     bordercolor="#eeeeee"
     borderopacity="1"
     inkscape:showpageshadow="0"
     inkscape:pageopacity="0"
     inkscape:pagecheckerboard="0"
     inkscape:deskcolor="#505050"
     showgrid="false"
     inkscape:zoom="32.09375"
     inkscape:cx="8.2103213"
     inkscape:cy="11.014606"
     inkscape:window-width="2560"
     inkscape:window-height="1387"
     inkscape:window-x="0"
     inkscape:window-y="25"
     inkscape:window-maximized="1"
     inkscape:current-layer="svg184" />
  <path
     d="M 63.61785,49.145592 43.04549,35.430687 a 3.4287264,3.4287264 0 0 0 -5.33167,2.854414 v 27.429814 a 3.4287264,3.4287264 0 0 0 5.33167,2.854414 L 63.61785,54.854423 a 3.4287264,3.4287264 0 0 0 0,-5.708831 z M 44.571274,59.307482 V 44.713964 l 10.963353,7.286044 z M 93.57206,26.936017 A 10.286179,10.286179 0 0 0 87.361781,19.907128 C 72.669687,14.232585 49.285772,14.284016 48,14.284016 c -1.285773,0 -24.669686,-0.05143 -39.3617798,5.623112 a 10.286179,10.286179 0 0 0 -6.2102806,7.028889 c -1.1100502,4.277337 -2.43010985,12.094833 -2.43010985,25.063991 0,12.969158 1.32005965,20.786654 2.43010985,25.063991 a 10.286179,10.286179 0 0 0 6.2102807,7.033175 C 22.713142,89.527419 44.74271,89.716 47.717131,89.716 h 0.565739 c 2.974421,0 25.016845,-0.188581 39.078911,-5.618826 a 10.286179,10.286179 0 0 0 6.210279,-7.033175 c 1.110051,-4.285908 2.43011,-12.094833 2.43011,-25.063991 0,-12.969158 -1.320059,-20.786654 -2.43011,-25.063991 z m -6.638871,48.430762 a 3.4287264,3.4287264 0 0 1 -2.044377,2.352964 c -13.5649,5.237379 -36.635943,5.143089 -36.85881,5.143089 h -0.03 c -0.23144,0 -23.285339,0.08571 -36.85881,-5.143089 A 3.4287264,3.4287264 0 0 1 9.0968123,75.366779 c -1.041475,-3.913034 -2.241529,-11.121931 -2.241529,-23.366771 0,-12.24484 1.200054,-19.453737 2.211528,-23.345342 A 3.4287264,3.4287264 0 0 1 11.11119,26.284559 c 13.08059,-5.053086 34.998725,-5.14309 36.794519,-5.14309 h 0.115721 c 0.231438,0 23.306769,-0.07715 36.858808,5.14309 a 3.4287264,3.4287264 0 0 1 2.04438,2.352963 c 1.020045,3.908749 2.2201,11.117646 2.2201,23.362486 0,12.24484 -1.200054,19.453737 -2.211529,23.345342 z"
     id="path182"
     style="stroke-width:0.42859" />
</svg>
